<svg xmlns="http://www.w3.org/2000/svg" version="1.1" xmlns:xlink="http://www.w3.org/1999/xlink" width="160" height="160"><svg width="160" height="160" viewBox="0 0 160 160" fill="none" xmlns="http://www.w3.org/2000/svg">
<path d="M75.2304 38.5757C68.8213 38.5757 63.6166 43.7753 63.6166 50.178C63.6166 56.5807 68.8213 61.7802 75.2304 61.7802C81.6395 61.7802 86.8442 56.5807 86.8442 50.178C86.8442 43.7753 81.6395 38.5757 75.2304 38.5757ZM79.8759 79.957C79.8759 77.3931 77.7969 75.3161 75.2304 75.3161C72.6639 75.3161 70.5849 77.3931 70.5849 79.957C70.5849 82.521 72.6639 84.5979 75.2304 84.5979C77.7969 84.5979 79.8759 82.521 79.8759 79.957ZM63.6166 109.75C63.6166 116.153 68.8213 121.353 75.2304 121.353C81.6395 121.353 86.8442 116.153 86.8442 109.75C86.8442 103.348 81.6395 98.1482 75.2304 98.1482C68.8069 98.1482 63.6166 103.333 63.6166 109.75ZM93.4253 79.957C93.4253 86.3597 98.63 91.5592 105.039 91.5592C111.448 91.5592 116.653 86.3597 116.653 79.957C116.653 73.5543 111.448 68.3548 105.039 68.3548C98.63 68.3548 93.4253 73.5543 93.4253 79.957ZM33.7935 79.957C33.7935 86.3597 38.9982 91.5592 45.4073 91.5592C51.8164 91.5592 57.0211 86.3597 57.0211 79.957C57.0211 73.5543 51.8164 68.3548 45.4073 68.3548C38.9982 68.3548 33.7935 73.5543 33.7935 79.957ZM143.68 134.258C139.379 124.905 129.959 118.789 119.65 118.688C114.244 118.602 109.011 120.207 104.523 123.215C104.494 123.229 104.48 123.243 104.451 123.258C95.8055 129.087 85.6971 132.181 75.2304 132.181C46.411 132.181 22.9683 108.762 22.9683 79.9713C22.9683 51.1806 46.411 27.7613 75.2304 27.7613C104.05 27.7613 127.493 51.1806 127.493 79.9713C127.493 88.8091 125.241 97.5322 120.997 105.21C120.065 106.886 120.682 109.006 122.359 109.937C124.037 110.868 126.159 110.252 127.091 108.576C131.909 99.867 134.461 89.9836 134.461 79.9713C134.461 47.3419 107.892 20.8 75.2304 20.8C42.5684 20.8 16 47.3419 16 79.9713C16 112.601 42.5684 139.143 75.2304 139.143C87.0019 139.143 98.372 135.691 108.122 129.173C108.15 129.159 108.194 129.145 108.222 129.116C111.577 126.81 115.506 125.664 119.592 125.65C127.206 125.721 134.174 130.248 137.357 137.166C137.945 138.441 139.207 139.2 140.526 139.2C141.013 139.2 141.501 139.1 141.974 138.885C143.723 138.068 144.483 136.006 143.68 134.258Z" fill="#DAC5A7"></path>
</svg><style>@media (prefers-color-scheme: light) { :root { filter: none; } }
@media (prefers-color-scheme: dark) { :root { filter: none; } }
</style></svg>