<svg display="none" xmlns="http://www.w3.org/2000/svg">

    <symbol id="instagram" viewBox="0 0 64 64">
			<path d="M 21.580078 7 C 13.541078 7 7 13.544938 7 21.585938 L 7 42.417969 C 7 50.457969 13.544938 57 21.585938 57 L 42.417969 57 C 50.457969 57 57 50.455062 57 42.414062 L 57 21.580078 C 57 13.541078 50.455062 7 42.414062 7 L 21.580078 7 z M 47 15 C 48.104 15 49 15.896 49 17 C 49 18.104 48.104 19 47 19 C 45.896 19 45 18.104 45 17 C 45 15.896 45.896 15 47 15 z M 32 19 C 39.17 19 45 24.83 45 32 C 45 39.17 39.169 45 32 45 C 24.83 45 19 39.169 19 32 C 19 24.831 24.83 19 32 19 z M 32 23 C 27.029 23 23 27.029 23 32 C 23 36.971 27.029 41 32 41 C 36.971 41 41 36.971 41 32 C 41 27.029 36.971 23 32 23 z"/>
    </symbol>

    <symbol id="x" viewBox="0 0 640 640">
			<path d="M453.2 112L523.8 112L369.6 288.2L551 528L409 528L297.7 382.6L170.5 528L99.8 528L264.7 339.5L90.8 112L236.4 112L336.9 244.9L453.2 112zM428.4 485.8L467.5 485.8L215.1 152L173.1 152L428.4 485.8z"/>
    </symbol>

    <symbol id="gmail" viewBox="0 0 640 640">
			<path d="M564 325.8C564 467.3 467.1 568 324 568C186.8 568 76 457.2 76 320C76 182.8 186.8 72 324 72C390.8 72 447 96.5 490.3 136.9L422.8 201.8C334.5 116.6 170.3 180.6 170.3 320C170.3 406.5 239.4 476.6 324 476.6C422.2 476.6 459 406.2 464.8 369.7L324 369.7L324 284.4L560.1 284.4C562.4 297.1 564 309.3 564 325.8z"/>
    </symbol>

		<symbol id="telegram" viewBox="0 0 32 32">
			<path d="M29.919 6.163l-4.225 19.925c-0.319 1.406-1.15 1.756-2.331 1.094l-6.438-4.744-3.106 2.988c-0.344 0.344-0.631 0.631-1.294 0.631l0.463-6.556 11.931-10.781c0.519-0.462-0.113-0.719-0.806-0.256l-14.75 9.288-6.35-1.988c-1.381-0.431-1.406-1.381 0.288-2.044l24.837-9.569c1.15-0.431 2.156 0.256 1.781 2.013z"/>
    </symbol>

		<symbol id="arrowUp" viewBox="0 0 640 640">
			<path d="M297.4 201.4C309.9 188.9 330.2 188.9 342.7 201.4L502.7 361.4C515.2 373.9 515.2 394.2 502.7 406.7C490.2 419.2 469.9 419.2 457.4 406.7L320 269.3L182.6 406.6C170.1 419.1 149.8 419.1 137.3 406.6C124.8 394.1 124.8 373.8 137.3 361.3L297.3 201.3z"/>
    </symbol>

		<symbol id="play" viewBox="0 0 640 640">
			<path d="M64 320C64 178.6 178.6 64 320 64C461.4 64 576 178.6 576 320C576 461.4 461.4 576 320 576C178.6 576 64 461.4 64 320zM252.3 211.1C244.7 215.3 240 223.4 240 232L240 408C240 416.7 244.7 424.7 252.3 428.9C259.9 433.1 269.1 433 276.6 428.4L420.6 340.4C427.7 336 432.1 328.3 432.1 319.9C432.1 311.5 427.7 303.8 420.6 299.4L276.6 211.4C269.2 206.9 259.9 206.7 252.3 210.9z"/>
    </symbol>

</svg>